<?xml version="1.0" standalone="no"?>
<!DOCTYPE svg PUBLIC "-//W3C//DTD SVG 1.1//EN" "http://www.w3.org/Graphics/SVG/1.1/DTD/svg11.dtd" >
<svg>
<metadata>
Created by FontForge 20110222 at Mon Mar  7 13:30:27 2011
 By www-data
Created by Romochka, 2007
</metadata>
<defs>
<font id="CRYSIS-Bold" horiz-adv-x="1800" >
  <font-face 
    font-family="CRYSIS"
    font-weight="700"
    font-stretch="normal"
    units-per-em="2048"
    panose-1="2 0 8 0 0 0 0 0 0 0"
    ascent="1638"
    descent="-410"
    x-height="900"
    cap-height="1200"
    bbox="100 -425 3848 1700"
    underline-thickness="150"
    underline-position="-142"
    unicode-range="U+0020-2122"
  />
    <missing-glyph />
    <glyph glyph-name="space" unicode=" " horiz-adv-x="1300" 
 />
    <glyph glyph-name="space" unicode="&#xa0;" horiz-adv-x="1300" 
 />
    <glyph glyph-name="exclam" unicode="!" horiz-adv-x="400" 
d="M100 200h200v-200q-200 0 -200 200zM100 1600q200 0 200 -251v-1049h-200v1300z" />
    <glyph glyph-name="quotedbl" unicode="&#x22;" horiz-adv-x="700" 
d="M100 1600h200v-400q-200 0 -200 300v100zM600 1500q0 -300 -200 -300v399l200 1v-100z" />
    <glyph glyph-name="numbersign" unicode="#" 
d="M700 900h400v299q200 0 200 -299h400q0 -200 -300 -200h-100v-200h400q0 -199 -300 -200h-99v-300q-200 0 -201 300h-400l1 -300q-200 0 -201 300l-400 -1q0 200 300 200v1h100v200h-399q0 199 299 200h100v300q200 0 200 -300zM1100 700h-400v-200h400v200z" />
    <glyph glyph-name="dollar" unicode="$" 
d="M800 1l-400 -1q-200 0 -300 200h700v300h-700q100 650 650 701h50v299h200v-299l400 -1q199 0 300 -200h-700v-300h700q-100 -650 -649 -699h-51v-301h-200v301zM800 1000q-301 0 -400 -300h400v300zM1000 200q300 0 400 300h-400v-300z" />
    <glyph glyph-name="percent" unicode="%" horiz-adv-x="2000" 
d="M750 950q-51 100 -200.5 100t-199.5 -100q50 -99 199.5 -99t200.5 99zM600 650h-101q-199 50 -399 300q200 250 399 300h101q199 -50 399 -300q-200 -250 -399 -300zM1650 299q-50 101 -200 101t-200 -100q50 -100 200 -100t200 99zM1500 0h-100q-199 50 -399 300
q199 250 399 300h101q199 -51 399 -301q-200 -249 -400 -299zM1601 1050l-1102 -1009q-101 -41 -300 -41v100l200 100l1101 1000q101 50 301 50v-100z" />
    <glyph glyph-name="ampersand" unicode="&#x26;" horiz-adv-x="2051" 
d="M1466 324l-39 68q-81 108 -378 108l-300 1q-349 -1 -400 -150q55 -152 405 -151h295q185 0 417 124zM1049 700q352 0 400 150q-50 150 -400 150h-300q-349 0 -400 -150q50 -149 400 -149zM1777 249q56 -108 124 -249h-250l-72 126q-250 -126 -529 -126h-296
q-550 0 -654 351q49 199 150 249q-101 50 -150 250q100 350 646 350h306q547 0 648 -350q-51 -200 -150 -250q38 -19 116 -151q66 46 135 101l150 -150q-85 -84 -174 -151z" />
    <glyph glyph-name="quotesingle" unicode="'" horiz-adv-x="400" 
d="M100 1600h200v-400q-200 0 -200 300v100z" />
    <glyph glyph-name="parenleft" unicode="(" horiz-adv-x="599" 
d="M400 1300h99q-200 -300 -199 -800q0 -500 199 -800h-99q-300 201 -300 697v206q0 498 300 697z" />
    <glyph glyph-name="parenright" unicode=")" horiz-adv-x="600" 
d="M500 600v-200q0 -499 -301 -700h-99q200 300 200 800t-200 800h99q301 -200 301 -700z" />
    <glyph glyph-name="asterisk" unicode="*" horiz-adv-x="900" 
d="M100 1269l49 160q168 -63 244 -109q-19 206 -20 279h153q-2 -107 -24 -278q107 57 249 108l49 -160q-136 -47 -263 -62q64 -60 182 -212l-127 -96q-59 86 -146 241q-79 -158 -138 -241l-124 96q116 154 176 212q-139 28 -260 62z" />
    <glyph glyph-name="plus" unicode="+" horiz-adv-x="999" 
d="M100 350q0 200 200 200h99v300q200 0 200 -200v-100h300v-2q0 -198 -199 -198h-101v-300q-200 0 -200 200v100h-299z" />
    <glyph glyph-name="comma" unicode="," horiz-adv-x="400" 
d="M100 -200v200q0 200 200 200v-100q0 -300 -200 -300z" />
    <glyph glyph-name="hyphen" unicode="-" horiz-adv-x="999" 
d="M100 350q0 200 200 200h599v-2q0 -198 -199 -198h-600z" />
    <glyph glyph-name="period" unicode="." horiz-adv-x="400" 
d="M100 200q200 0 200 -200h-200v200z" />
    <glyph glyph-name="slash" unicode="/" horiz-adv-x="900" 
d="M299 100q-50 -100 -199 -100v100l499 1050q50 99 201 99v-99z" />
    <glyph glyph-name="zero" unicode="0" 
d="M100 625q105 275 655 275h295q550 0 650 -275v-351q-101 -274 -650 -274h-295q-550 0 -655 275v350zM1450 625q-47 70 -400 75h-295q-353 -5 -405 -75v-350q52 -70 405 -74l295 -1q353 5 400 76v349z" />
    <glyph glyph-name="one" unicode="1" horiz-adv-x="600" 
d="M100 700q0 200 200 200h200v-625q0 -275 -200 -275v700h-200z" />
    <glyph glyph-name="two" unicode="2" 
d="M1400 550q-100 150 -400 150h-900q101 200 300 200h651q550 -50 649 -550h-1350v-150h1350q-100 -200 -300 -200h-1000q-300 0 -300 200v150q0 200 300 200h1000z" />
    <glyph glyph-name="three" unicode="3" 
d="M1450 550v75q-47 70 -400 75h-950v200h950q550 0 650 -275v-351q-101 -274 -650 -274h-950v200h950q353 5 400 76v74h-950v200h950z" />
    <glyph glyph-name="four" unicode="4" 
d="M1400 200h-1001q-199 0 -299 300l1299 400q202 0 300 -100l-99 -30v-370h100q0 -200 -100 -200v-200h-200v200zM1400 708l-1000 -308h1000v308z" />
    <glyph glyph-name="five" unicode="5" horiz-adv-x="1790" 
d="M1390 900q200 0 300 -200h-1300q111 -149 400 -150h600q300 -1 300 -201v-150q0 -199 -300 -199h-900q-200 0 -300 199h1250v151h-675q-565 51 -665 551z" />
    <glyph glyph-name="six" unicode="6" horiz-adv-x="1801" 
d="M1000 200q300 0 400 150h-1074l-1 -150h675zM1701 700h-900q-300 0 -401 -151l1301 1q-100 -500 -650 -550h-651q-199 0 -300 200v149q101 501 650 550l651 1q200 0 300 -200z" />
    <glyph glyph-name="seven" unicode="7" 
d="M1400 700h-1099v-100h-201v300h1301q200 0 299 -300l-700 -216v-384h-200v515z" />
    <glyph glyph-name="eight" unicode="8" horiz-adv-x="1795" 
d="M1045 550q350 0 400 75q-50 75 -400 75l-295 -1q-350 0 -400 -75q50 -75 400 -74h295zM1045 900q550 0 650 -275q-40 -109 -150 -175q110 -66 150 -175q-100 -275 -649 -275h-296q-550 0 -650 274q40 109 150 175q-110 66 -150 175q100 275 650 276h295zM1045 200
q350 0 400 75q-50 75 -400 75l-295 -1q-350 0 -400 -75q50 -75 400 -74h295z" />
    <glyph glyph-name="nine" unicode="9" horiz-adv-x="1801" 
d="M801 700q-300 0 -400 -150h1074l1 150h-675zM100 200h900q300 0 401 151l-1301 -1q100 500 650 550h651q199 0 300 -200v-150q-101 -500 -650 -549l-651 -1q-200 0 -300 200z" />
    <glyph glyph-name="colon" unicode=":" horiz-adv-x="400" 
d="M300 0h-200q0 200 200 200v-200zM300 850h-200q0 200 200 200v-200z" />
    <glyph glyph-name="semicolon" unicode=";" horiz-adv-x="400" 
d="M100 1050q200 0 200 -200h-200v200zM100 -200v200q0 200 200 200v-100q0 -300 -200 -300z" />
    <glyph glyph-name="less" unicode="&#x3c;" horiz-adv-x="900" 
d="M800 50l-400 150q-300 99 -300 250q1 150 300 250l400 149q0 -150 -150 -249l-350 -151l350 -149q150 -100 150 -248v-2z" />
    <glyph glyph-name="equal" unicode="=" horiz-adv-x="1000" 
d="M101 99q0 200 200 200h599v-2q0 -198 -199 -198h-600zM100 600q0 200 200 200h599q1 -200 -199 -200h-600z" />
    <glyph glyph-name="greater" unicode="&#x3e;" horiz-adv-x="900" 
d="M100 50v2q0 148 150 248l350 149l-350 151q-150 99 -150 249l399 -149q300 -100 301 -250q0 -151 -301 -250z" />
    <glyph glyph-name="question" unicode="?" 
d="M800 0v200q200 0 200 -200h-200zM1449 850q-50 150 -400 150h-300q-349 0 -400 -150q51 -150 -74 -150t-175 150q100 350 646 350h306q547 0 648 -350q-50 -300 -700 -400v-200q-200 0 -200 150v100q0 150 200 150q406 65 449 200z" />
    <glyph glyph-name="at" unicode="@" horiz-adv-x="2401" 
d="M1700 1030v70h200v-800h200v900q-100 100 -450 100h-900q-350 0 -450 -100v-1200q100 -100 450 -100h900q350 0 450 100l201 -25q-101 -274 -651 -275h-894q-550 0 -655 275l-1 1249q105 275 650 276h900q550 0 650 -275v-925q0 -150 -150 -200h-250q-122 0 -170 75
q-183 -31 -608 -50q-547 -25 -646 300v350q99 325 642 300q399 -18 582 -45zM1700 368v464q-145 23 -460 42q-465 27 -540 -124v-300q75 -149 538 -122q317 18 462 40z" />
    <glyph glyph-name="A" unicode="A" horiz-adv-x="2100" 
d="M2000 0h-200v500h-1500v-500h-200v750q200 400 650 450h600q450 -50 650 -450v-750zM1778 700q-178 300 -478 300h-500q-300 0 -478 -300h1456z" />
    <glyph glyph-name="B" unicode="B" horiz-adv-x="2099" 
d="M300 501l1000 -1q400 0 450 -149q-50 -150 -450 -150h-1000v300zM300 1000h1000q400 0 450 -150q-50 -150 -450 -150h-1000v300zM100 0l1200 1q600 -1 699 349q-46 163 -201 250q155 87 201 250q-99 350 -699 350h-1200v-1200z" />
    <glyph glyph-name="C" unicode="C" horiz-adv-x="2101" 
d="M2000 0h-1100q-600 50 -800 600q201 550 800 600h1100v-200h-1050q-449 0 -625 -400q175 -400 625 -400h1051z" />
    <glyph glyph-name="D" unicode="D" horiz-adv-x="2100" 
d="M300 1000v-800h850q450 0 625 400q-175 400 -625 400h-850zM100 0v1200h1100q600 -50 800 -600q-200 -550 -800 -600h-1100z" />
    <glyph glyph-name="E" unicode="E" horiz-adv-x="2100" 
d="M375 500q225 -300 525 -300h1099l1 -200h-1100q-600 50 -800 600q200 550 800 600h1099v-200h-1099q-300 0 -525 -300h1125v-200h-1125z" />
    <glyph glyph-name="F" unicode="F" horiz-adv-x="2100" 
d="M100 0v1200h1600q300 0 300 -200h-1700v-300h1500v-200h-1500v-500h-200z" />
    <glyph glyph-name="G" unicode="G" horiz-adv-x="2100" 
d="M2000 0h-1100q-600 50 -800 600q201 550 800 600h1100v-200h-1050q-449 0 -625 -400q175 -400 625 -400h851l-1 300h-400v200h600v-700z" />
    <glyph glyph-name="H" unicode="H" horiz-adv-x="2100" 
d="M100 0v1200h200v-500h1500v500h200v-1200h-200v500h-1500v-500h-200z" />
    <glyph glyph-name="I" unicode="I" horiz-adv-x="901" 
d="M351 200v800h-251q1 200 201 200h499q0 -200 -200 -200h-49v-800h250q-1 -199 -200 -200h-501q1 200 201 201z" />
    <glyph glyph-name="J" unicode="J" horiz-adv-x="2100" 
d="M1349 1l-600 -1q-549 -1 -649 450q50 150 175 150t74 -150q51 -250 400 -250l600 1q350 0 451 299v700h200v-750q-101 -450 -651 -449z" />
    <glyph glyph-name="K" unicode="K" horiz-adv-x="2100" 
d="M100 0v1200h201l-1 -500h500l700 500h500v-200h-475l-525 -400l525 -400h475v-200h-501l-699 500h-500v-500h-200z" />
    <glyph glyph-name="L" unicode="L" horiz-adv-x="2101" 
d="M100 900q0 300 201 300l-1 -1000l1500 1v175h201l-1 -375l-1700 -1q-199 0 -199 200z" />
    <glyph glyph-name="M" unicode="M" horiz-adv-x="2100" 
d="M800 1000q-300 0 -450 -250l-50 -90v-660h-200v750q200 400 650 450h600q450 -50 650 -450v-750h-200v660l-50 90q-150 250 -450 250h-150v-600h-200v600h-150z" />
    <glyph glyph-name="N" unicode="N" horiz-adv-x="2100" 
d="M300 0h-200v1200q200 0 301 -50l1399 -951l1 1001h199v-1200q-199 0 -300 40l-1400 960v-1000z" />
    <glyph glyph-name="O" unicode="O" horiz-adv-x="2100" 
d="M950 200h200q450 0 625 400q-175 400 -625 400h-200q-450 0 -625 -400q175 -400 625 -400zM900 0q-600 50 -800 600q200 550 800 600h300q600 -50 800 -600q-200 -550 -800 -600h-300z" />
    <glyph glyph-name="P" unicode="P" horiz-adv-x="2099" 
d="M300 1000h1000q400 0 450 -150q-50 -150 -450 -150h-1000v300zM1300 500q600 0 699 350q-99 350 -699 350h-1200v-1200h200v500h1000z" />
    <glyph glyph-name="Q" unicode="Q" horiz-adv-x="2100" 
d="M950 200h200q450 0 625 400q-175 400 -625 400h-200q-450 0 -625 -400q175 -400 625 -400zM1327 17q-61 -12 -127 -17h-300q-600 50 -800 600q200 550 800 600h300q600 -50 800 -600q-141 -387 -479 -526l227 -274q-199 21 -300 96z" />
    <glyph glyph-name="R" unicode="R" horiz-adv-x="2100" 
d="M300 1000h1000q400 0 450 -150q-50 -150 -450 -150h-1000v300zM1300 0h700v200h-625l-301 300h226q600 0 699 350q-99 350 -699 350h-1200v-1200h200v500h500z" />
    <glyph glyph-name="S" unicode="S" horiz-adv-x="2100" 
d="M2000 701q-200 -651 -850 -701h-750q-200 0 -300 200h1000q400 0 600 300h-1600q200 650 850 700h750q200 0 300 -200h-1000q-400 0 -600 -300z" />
    <glyph glyph-name="T" unicode="T" horiz-adv-x="2100" 
d="M101 1000l-1 200h1900v-200h-849v-1000h-201v1000h-849z" />
    <glyph glyph-name="U" unicode="U" horiz-adv-x="2100" 
d="M1300 200q300 0 450 250l50 90v660h200v-750q-200 -400 -650 -450h-600q-450 50 -650 450v750h200v-660l50 -90q150 -250 450 -250h500z" />
    <glyph glyph-name="V" unicode="V" horiz-adv-x="2100" 
d="M950 0h200l850 600v600h-200v-500l-749 -500l-750 500l-1 500l-200 1l1 -601z" />
    <glyph glyph-name="W" unicode="W" horiz-adv-x="2701" 
d="M899 0q-450 50 -798 550l-1 650h200l1 -575q348 -425 648 -425h102l200 150v550h200v-550l195 -150h104q300 0 650 425l1 575h200l-1 -650q-350 -500 -800 -550l-248 -7l-201 157l-199 -156z" />
    <glyph glyph-name="X" unicode="X" horiz-adv-x="2101" 
d="M1164 598q175 -399 624 -399l213 1v-200h-263q-462 38 -687 373q-225 -335 -687 -373h-263v200l213 -1q449 0 624 399v2q-176 399 -624 399l-214 1v200l264 -1q462 -38 687 -374q225 336 687 374l262 1l1 -200l-213 -1q-448 0 -624 -399v-2z" />
    <glyph glyph-name="Y" unicode="Y" horiz-adv-x="2099" 
d="M600 549l351 1l-1 -450q-1 -300 200 -300v750h350l498 350h1v300h-200v-201l-349 -249l-800 -1l-350 251v200h-200v-300h1z" />
    <glyph glyph-name="Z" unicode="Z" horiz-adv-x="2100" 
d="M100 1000v200h1600q200 0 299 -300l-1598 -700h1598l1 -200h-1600q-199 0 -299 300l1598 700h-1599z" />
    <glyph glyph-name="bracketleft" unicode="[" horiz-adv-x="500" 
d="M100 1400q0 100 200 100h100v-200h-100l1 -1400h99v-200h-99q-201 0 -201 100v1600z" />
    <glyph glyph-name="backslash" unicode="\" horiz-adv-x="900" 
d="M100 1150v99q150 0 201 -99l499 -1050v-100q-149 0 -200 100z" />
    <glyph glyph-name="bracketright" unicode="]" horiz-adv-x="500" 
d="M400 -200q0 -100 -201 -100h-99v200h99l1 1400h-100v200h100q200 0 200 -100v-1600z" />
    <glyph glyph-name="asciicircum" unicode="^" horiz-adv-x="999" 
d="M100 900l150 399q99 301 250 300q150 0 250 -300l149 -400q-150 0 -249 151l-150 350l-150 -350q-101 -151 -250 -150z" />
    <glyph glyph-name="underscore" unicode="_" 
d="M100 -300q0 200 299 200h1301q0 -200 -300 -200h-1300z" />
    <glyph glyph-name="grave" unicode="`" horiz-adv-x="649" 
d="M100 1550l204 50l245 -296q-199 21 -300 96z" />
    <glyph glyph-name="a" unicode="a" 
d="M1375 550q-143 150 -375 150h-200q-232 0 -375 -150h950zM300 351v-351h-200v450q200 400 650 450h300q450 -50 650 -450v-450l-1 1l-199 -1v350z" />
    <glyph glyph-name="b" unicode="b" 
d="M300 200h750q350 0 400 75q-50 75 -400 75h-749zM1050 900q550 0 650 -275q-40 -109 -150 -175q110 -66 150 -175q-100 -275 -650 -275h-950v900h950zM300 700v-150h750q350 0 400 75q-50 75 -400 75h-750z" />
    <glyph glyph-name="c" unicode="c" 
d="M1700 0h-950q-450 50 -650 450q200 400 650 450h950v-200h-900q-300 0 -450 -250q150 -250 450 -250h900v-200z" />
    <glyph glyph-name="d" unicode="d" 
d="M300 200h700q300 0 450 250q-150 250 -450 250h-700v-500zM100 900h950q450 -50 650 -450q-200 -400 -650 -450h-950v900z" />
    <glyph glyph-name="e" unicode="e" 
d="M425 350q143 -150 375 -150h900v-200h-950q-450 50 -650 450q200 400 650 450h950v-200h-900q-232 0 -375 -150h875v-200h-875z" />
    <glyph glyph-name="f" unicode="f" 
d="M100 0v900h1300q300 0 299 -200h-1400v-150h1151v-200h-1151v-350h-199z" />
    <glyph glyph-name="g" unicode="g" 
d="M1700 0h-950q-450 50 -650 450q200 400 650 450h950v-200h-900q-300 0 -450 -250q150 -250 450 -250h700v150h-300v200h500v-550z" />
    <glyph glyph-name="h" unicode="h" 
d="M100 0v900h200v-350h1200v350h200v-900h-200v350h-1200v-350h-200z" />
    <glyph glyph-name="i" unicode="i" horiz-adv-x="400" 
d="M100 599h200v-599h-200v599zM100 700v200q150 -51 200 -200h-200z" />
    <glyph glyph-name="j" unicode="j" horiz-adv-x="1801" 
d="M1701 350q-102 -350 -649 -350h-306q-546 0 -646 350q50 150 175 150t74 -150q51 -150 400 -150h300q350 0 452 200v500h200v-550z" />
    <glyph glyph-name="k" unicode="k" horiz-adv-x="1801" 
d="M100 0v900h201l-1 -350h299l700 350h402v-200h-402l-499 -250l499 -250h402v-200h-402l-700 350h-299v-350h-200z" />
    <glyph glyph-name="l" unicode="l" horiz-adv-x="1801" 
d="M100 600q0 300 201 300l-1 -700h1200v100h201l-1 -300h-1400q-199 0 -199 200z" />
    <glyph glyph-name="m" unicode="m" 
d="M800 700q-300 0 -450 -250l-50 -90v-360h-200v450q200 400 650 450h300q450 -50 650 -450v-450l-1 1l-199 -1v360l-50 90q-150 250 -450 250v-400h-200v400z" />
    <glyph glyph-name="n" unicode="n" 
d="M300 0h-200v900q200 0 301 -50l1099 -650l1 700h199v-900q-199 0 -300 41l-1100 659v-700z" />
    <glyph glyph-name="o" unicode="o" 
d="M800 200h200q300 0 450 250q-150 250 -450 250h-200q-300 0 -450 -250q150 -250 450 -250zM1050 0h-300q-450 50 -650 450q200 400 650 450h300q450 -50 650 -450q-200 -400 -650 -450z" />
    <glyph glyph-name="p" unicode="p" 
d="M300 700h750q350 0 400 -75q-50 -75 -400 -75h-750v150zM101 900l-1 -900h200v350h750q550 0 650 275q-100 275 -650 275h-949z" />
    <glyph glyph-name="q" unicode="q" 
d="M800 200h200q300 0 450 250q-150 250 -450 250h-200q-300 0 -450 -250q150 -250 450 -250zM1064 2l-14 -2h-300q-450 50 -650 450q200 400 650 450h300q450 -50 650 -450q-151 -302 -445 -405l245 -245q-200 32 -300 100z" />
    <glyph glyph-name="r" unicode="r" 
d="M300 700h750q350 0 400 -75q-50 -75 -400 -75h-750v150zM1000 0h700v200h-650l-225 150h225q550 0 650 275q-100 275 -650 275h-950v-900h200v350h200z" />
    <glyph glyph-name="s" unicode="s" horiz-adv-x="1801" 
d="M100 199h900q300 0 401 151l-1301 -1q100 500 650 550h651q199 0 300 -200h-900q-300 0 -400 -150h1300q-101 -500 -650 -549l-651 -1q-200 0 -300 200z" />
    <glyph glyph-name="t" unicode="t" horiz-adv-x="1801" 
d="M100 700v200h1601l-1 -200h-700v-700h-200v700h-700z" />
    <glyph glyph-name="u" unicode="u" 
d="M1000 200q300 0 450 250l50 90v360h200v-450q-200 -400 -650 -450h-300q-450 50 -650 450v450h200v-360l50 -90q150 -250 450 -250h200z" />
    <glyph glyph-name="v" unicode="v" 
d="M800 0h200l700 550v350h-200v-271l-600 -429l-600 429v271l-200 1v-351z" />
    <glyph glyph-name="w" unicode="w" horiz-adv-x="2401" 
d="M750 0q-450 50 -650 450v450h200v-360l50 -90q150 -250 450 -250h102l199 141v459h200v-460l196 -140h104q300 0 450 250l50 90v360h200v-450q-200 -400 -650 -450l-250 -2l-201 157l-199 -156z" />
    <glyph glyph-name="x" unicode="x" 
d="M900 261q-195 -224 -525 -261h-275v200h225q300 0 450 250q-150 250 -450 250h-225v200h275q330 -37 525 -261q195 224 525 261h275v-200h-225q-300 0 -450 -250q150 -250 450 -250h225v-200h-275q-330 37 -525 261z" />
    <glyph glyph-name="y" unicode="y" 
d="M599 225h201v-350q0 -200 200 -300l-1 650h200l500 375h1v300h-200v-201l-351 -274h-500l-349 275v200h-200v-300h1z" />
    <glyph glyph-name="z" unicode="z" horiz-adv-x="1801" 
d="M100 700v200h1301q200 0 299 -300l-1299 -400h1299l1 -200h-1301q-199 0 -299 300l1299 400h-1300z" />
    <glyph glyph-name="braceleft" unicode="{" horiz-adv-x="700" 
d="M500 1000v300h100v200q-300 0 -300 -100v-300q0 -400 -200 -450v-100q200 -50 200 -450v-299q0 -100 300 -100v200h-100v300q0 349 -139 399q139 50 139 400z" />
    <glyph glyph-name="bar" unicode="|" horiz-adv-x="400" 
d="M100 -300v1500q0 300 200 300v-1500q0 -300 -200 -300z" />
    <glyph glyph-name="braceright" unicode="}" horiz-adv-x="700" 
d="M339 600q-139 -50 -139 -399v-300h-100v-200q300 0 300 100v299q0 400 200 450v100q-200 50 -200 450v300q0 100 -300 100v-200h100v-300q0 -350 139 -400z" />
    <glyph glyph-name="asciitilde" unicode="~" horiz-adv-x="839" 
d="M131 341h-31q4 256 186 258h3q74 0 200 -84q82 -55 123 -55q72 0 94 139h33q0 -168 -98 -233q-45 -29 -92 -29q-78 0 -197 80q-90 61 -127 61q-41 0 -66 -36q-10 -15 -28 -101z" />
    <glyph glyph-name="Scaron" unicode="&#x160;" horiz-adv-x="2100" 
d="M2000 701q-200 -651 -850 -701h-750q-200 0 -300 200h1000q400 0 600 300h-1600q200 650 850 700h750q200 0 300 -200h-1000q-400 0 -600 -300zM1100 1450q250 225 450 150l-200 -150q-99 -100 -249 -100q-151 -1 -251 100l-200 150q200 75 450 -150z" />
    <glyph glyph-name="scaron" unicode="&#x161;" horiz-adv-x="1801" 
d="M100 199h900q300 0 401 151l-1301 -1q100 500 650 550h651q199 0 300 -200h-900q-300 0 -400 -150h1300q-101 -500 -650 -549l-651 -1q-200 0 -300 200zM900 1150q250 225 450 150l-200 -150q-99 -100 -249 -100q-151 -1 -251 100l-200 150q200 75 450 -150z" />
    <glyph glyph-name="Zcaron" unicode="&#x17d;" horiz-adv-x="2100" 
d="M100 1000v200h1600q200 0 299 -300l-1598 -700h1598l1 -200h-1600q-199 0 -299 300l1598 700h-1599zM1049 1449q250 225 451 150l-201 -150q-99 -100 -249 -100q-151 -1 -250 100l-201 150q201 75 450 -150z" />
    <glyph glyph-name="zcaron" unicode="&#x17e;" horiz-adv-x="1801" 
d="M100 700v200h1301q200 0 299 -300l-1299 -400h1299l1 -200h-1301q-199 0 -299 300l1299 400h-1300zM901 1150q249 225 450 150l-201 -149q-98 -101 -248 -101q-151 -1 -251 101l-201 150q201 74 451 -151z" />
    <glyph glyph-name="brokenbar" unicode="&#xa6;" horiz-adv-x="400" 
d="M100 1200q0 300 200 300v-800h-200v500zM300 0q0 -300 -200 -300v800h200v-500z" />
    <glyph glyph-name="Eth" unicode="&#xd0;" horiz-adv-x="2751" 
d="M751 700v500h1100q600 -50 800 -600q-200 -550 -800 -600h-1100v499l-651 1q0 200 299 200h352zM951 700l650 -1q0 -200 -300 -200h-350v-299h850q450 0 625 400q-175 400 -625 400h-850v-300z" />
    <glyph glyph-name="eth" unicode="&#xf0;" horiz-adv-x="2399" 
d="M699 550v350h950q450 -50 650 -450q-200 -400 -650 -450h-950v350h-599q0 200 299 200h300zM899 550h601q0 -200 -300 -200h-301v-150h700q300 0 450 250q-150 250 -450 250h-700v-150z" />
    <glyph glyph-name="Yacute" unicode="&#xdd;" horiz-adv-x="2099" 
d="M600 549l351 1l-1 -450q-1 -300 200 -300v750h350l498 350h1v300h-200v-201l-349 -249l-800 -1l-350 251v200h-200v-300h1zM1250 1399q-101 -75 -300 -96l245 296l204 -50z" />
    <glyph glyph-name="yacute" unicode="&#xfd;" 
d="M599 225h201v-350q0 -200 200 -300l-1 650h200l500 375h1v300h-200v-201l-351 -274h-500l-349 275v200h-200v-300h1zM1101 1100q-101 -75 -300 -96l245 296l204 -50z" />
    <glyph glyph-name="Thorn" unicode="&#xde;" horiz-adv-x="2948" 
d="M1150 500h999q400 0 450 -150q-50 -150 -450 -150h-999v300zM1150 1000h849v200h-1899l1 -200h850l-1 -1300h200v300h999q600 0 699 350q-99 350 -699 350h-998z" />
    <glyph glyph-name="thorn" unicode="&#xfe;" horiz-adv-x="2501" 
d="M1001 350h750q350 0 400 -75q-50 -75 -400 -75h-750v150zM1751 0q550 0 650 275q-100 275 -650 275h-750v150l699 -1v201h-1600v-200h700v-900h200v200h751z" />
    <glyph glyph-name="multiply" unicode="&#xd7;" horiz-adv-x="1001" 
d="M400 451l-300 300v99q150 0 200 -75l201 -224l199 224q51 75 201 75v-99l-300 -300l300 -301v-100q-149 0 -201 75l-199 225l-201 -225q-51 -75 -200 -75v100z" />
    <glyph glyph-name="uni00B9" unicode="&#xb9;" horiz-adv-x="600" 
d="M100 1350q0 150 150 150h250l-1 -750q1 -150 -149 -150v750h-250z" />
    <glyph glyph-name="uni00B2" unicode="&#xb2;" horiz-adv-x="1350" 
d="M1000 1125q-151 225 -451 226h-449q101 149 300 149h200q550 -50 650 -525h-950v-225h949q-100 -150 -300 -150h-549q-300 0 -300 200v150q0 175 300 175h600z" />
    <glyph glyph-name="uni00B3" unicode="&#xb3;" horiz-adv-x="1353" 
d="M1050 1125l1 100q-50 125 -451 125h-500v150h504q549 0 649 -274v-351q-101 -274 -653 -275h-500v150h500q401 0 451 126l-1 99h-550v150h550z" />
    <glyph glyph-name="onehalf" unicode="&#xbd;" horiz-adv-x="2751" 
d="M1150 1300l-524 -1250q-127 -50 -326 -50v99l100 101l551 1250q99 49 299 49v-100zM2351 550q-100 150 -400 150h-900q101 200 300 200h651q550 -50 649 -550h-1350v-150h1350q-100 -200 -300 -200h-1000q-300 0 -300 200v150q0 200 300 200h1000zM100 1299
q0 200 200 200h200v-625q0 -275 -200 -275v700h-200z" />
    <glyph glyph-name="onequarter" unicode="&#xbc;" horiz-adv-x="2750" 
d="M1150 1300l-524 -1249q-127 -51 -326 -51v100l100 100l551 1251q99 49 299 49v-100zM100 1300q0 200 200 200h200v-625q0 -275 -200 -275v700h-200zM2350 200h-1001q-199 0 -299 300l1299 400q202 0 300 -100l-99 -30v-370h100q0 -200 -100 -200v-200h-200v200zM2350 708
l-1000 -308h1000v308z" />
    <glyph glyph-name="threequarters" unicode="&#xbe;" horiz-adv-x="3948" 
d="M2348 1300l-524 -1249q-127 -51 -326 -51v100l100 100l551 1250q99 50 299 50v-100zM3548 200h-1001q-199 0 -299 300l1299 400q202 0 300 -100l-99 -30v-370h100q0 -200 -100 -200v-200h-200v200zM3548 708l-1000 -308h1000v308zM1450 1151v75q-47 70 -400 75h-950v200
h950q550 0 650 -275v-351q-101 -274 -650 -274h-950v200h950q353 5 400 76v74h-950v200h950z" />
    <glyph glyph-name="exclamdown" unicode="&#xa1;" horiz-adv-x="400" 
d="M300 1600v-200h-200q0 200 200 200zM100 0q200 0 200 251v1049h-200v-1300z" />
    <glyph glyph-name="cent" unicode="&#xa2;" 
d="M900 200v500h-100q-300 0 -450 -250q150 -250 450 -250h100zM1100 200h600v-200h-600v-100q0 -300 -200 -300v400h-150q-450 50 -650 450q200 400 650 450h150v100q0 300 200 300v-400h600v-200h-600v-500z" />
    <glyph glyph-name="sterling" unicode="&#xa3;" horiz-adv-x="1200" 
d="M100 100v-100h1000q0 200 -200 200h-200q-250 0 -175 125t75 276v49h300q0 200 -200 200h-100v500h400q0 200 -200 200h-200q-200 0 -200 -200v-500h-300q0 -200 200 -200h100v-100q-100 -350 -300 -450z" />
    <glyph glyph-name="currency" unicode="&#xa4;" horiz-adv-x="1001" 
d="M675 450q0 200 -175 200q-174 -1 -174 -201q1 -200 174 -199q175 0 175 200zM222 629l-122 122v99q150 0 200 -75l28 -31q79 56 172 56t173 -56l27 31q51 75 201 75v-99l-121 -121q45 -79 45 -180q0 -100 -45 -178l121 -122v-100q-149 0 -201 75l-27 31q-80 -56 -173 -56
t-172 56l-28 -31q-51 -75 -200 -75v100l121 122q-45 79 -45 179q1 100 46 178z" />
    <glyph glyph-name="yen" unicode="&#xa5;" horiz-adv-x="2099" 
d="M599 450q-299 0 -299 -200h650v-150q-1 -300 200 -300v450h350q300 0 300 200h-650v100h350l498 350h1v300h-200v-201l-349 -249l-800 -1l-350 251v200h-200v-300h1l499 -350h351v-100h-352z" />
    <glyph glyph-name="section" unicode="&#xa7;" horiz-adv-x="1200" 
d="M901 551q-151 275 -301 275t-300 -274q150 -275 300 -275t301 274zM1000 365l-1 -562q1 -201 -199 -201l-400 -1q-199 0 -200 201v100q200 0 200 -100h400v357q-94 -57 -200 -57q0 -1 -1 -1q-299 0 -499 451q47 107 100 188l1 560q-1 201 199 201h402q197 0 198 -200
v-100q-200 0 -200 100h-400v-355q94 56 200 56q300 0 500 -450q-47 -106 -100 -187z" />
    <glyph glyph-name="dieresis" unicode="&#xa8;" horiz-adv-x="800" 
d="M300 1400h-200v200q200 0 200 -200zM700 1400h-200v200q200 0 200 -200z" />
    <glyph glyph-name="copyright" unicode="&#xa9;" horiz-adv-x="2401" 
d="M100 1224q105 275 650 276h900q550 0 650 -275l1 -1250q-101 -274 -651 -275h-894q-550 0 -655 275zM2151 1201q-151 150 -501 150l-900 -1q-350 0 -502 -150v-1200q152 -150 502 -150l900 1q350 0 501 150v1200zM1999 150h-950q-450 50 -650 450q200 400 650 450h950
v-200h-900q-300 0 -450 -250q150 -250 450 -250h900v-200z" />
    <glyph glyph-name="ordfeminine" unicode="&#xaa;" horiz-adv-x="1201" 
d="M876 1126q-125 200 -275 200t-275 -200h550zM275 952v-352h-175v451q201 450 498 450q296 0 503 -450l-1 -451h-175v352h-650z" />
    <glyph glyph-name="guillemotleft" unicode="&#xab;" horiz-adv-x="1250" 
d="M1149 50l-299 150q-250 100 -250 250t250 250l300 150q0 -150 -100 -250l-300 -150l300 -150q99 -99 99 -247v-3zM649 50l-299 150q-250 101 -250 250q0 151 250 250l300 150q0 -150 -100 -250l-300 -150l300 -150q100 -100 99 -250z" />
    <glyph glyph-name="logicalnot" unicode="&#xac;" horiz-adv-x="1200" 
d="M900 350h-800q0 200 200 200h800v-300q0 -200 -200 -200v300z" />
    <glyph glyph-name="uni00AD" unicode="&#xad;" horiz-adv-x="800" 
d="M100 350q0 200 200 200h400v-2q0 -198 -199 -198h-401z" />
    <glyph glyph-name="registered" unicode="&#xae;" horiz-adv-x="2401" 
d="M100 1224q105 275 650 276h900q550 0 650 -275l1 -1250q-101 -274 -651 -275h-894q-550 0 -655 275zM2151 1201q-151 150 -501 150l-900 -1q-350 -1 -502 -150v-1200q152 -151 502 -151l900 2q350 -1 501 150v1200zM600 850h750q350 0 400 -75q-50 -75 -400 -75h-750v150
zM1300 150h700v200h-650l-225 150h225q550 0 650 275q-100 275 -650 275h-950v-900h200v350h200z" />
    <glyph glyph-name="macron" unicode="&#xaf;" 
d="M1400 1500q300 0 300 -200h-1301q-299 0 -299 200h1300z" />
    <glyph glyph-name="degree" unicode="&#xb0;" horiz-adv-x="900" 
d="M800 1147q0 -148 -101 -246q-102 -100 -248 -101q-147 1 -249 101.5t-102 249.5q1 149 100.5 249t250.5 100q149 0 250 -100q99 -99 99 -247v-6zM650 1150q0 200 -200 200t-200 -200q1 -200 200 -200q200 0 200 200z" />
    <glyph glyph-name="plusminus" unicode="&#xb1;" horiz-adv-x="1000" 
d="M100 650q0 200 200 200h99v300q200 0 200 -200v-100h300v-2q0 -198 -199 -198h-101v-300q-200 0 -200 200v100h-299zM101 50q0 200 200 200h599v-2q0 -198 -199 -198h-600z" />
    <glyph glyph-name="acute" unicode="&#xb4;" horiz-adv-x="649" 
d="M400 1400q-101 -75 -300 -96l245 296l204 -50z" />
    <glyph glyph-name="mu" unicode="&#xb5;" 
d="M100 900h200v-360l50 -90q150 -250 450 -250h200q300 0 450 250l50 90v360h200v-899q-160 0 -192 192q-182 -162 -458 -193h-300q-270 30 -450 186v-310q0 -300 -200 -300v1324z" />
    <glyph glyph-name="paragraph" unicode="&#xb6;" horiz-adv-x="1350" 
d="M1050 1500q200 0 200 -300v-1600q-200 0 -199 300l-1 1400h-250v-1700q-200 0 -200 300v700h-200q-299 0 -300 300v300q1 300 300 300h650z" />
    <glyph glyph-name="periodcentered" unicode="&#xb7;" horiz-adv-x="400" 
d="M100 700q200 0 200 -200h-200v200z" />
    <glyph glyph-name="cedilla" unicode="&#xb8;" horiz-adv-x="801" 
d="M700 100v-299q1 -201 -199 -201h-201q-199 0 -200 201h401v300z" />
    <glyph glyph-name="ordmasculine" unicode="&#xba;" horiz-adv-x="1200" 
d="M900 1050q-150 275 -300 275t-300 -275q150 -275 300 -275t300 275zM600 600q0 -1 -1 -1q-299 0 -499 451q200 450 500 450t500 -450q-200 -450 -500 -450z" />
    <glyph glyph-name="guillemotright" unicode="&#xbb;" horiz-adv-x="1250" 
d="M101 50v3q0 148 98 247l300 150l-300 150q-99 100 -99 250l300 -150q250 -100 250 -250t-250 -250zM699 300l300 150l-300 150q-99 100 -99 250l300 -150q250 -99 250 -250q0 -149 -250 -250l-299 -150q-1 150 98 250z" />
    <glyph glyph-name="questiondown" unicode="&#xbf;" 
d="M1000 1200v-200q-200 0 -200 200h200zM351 350q50 -150 400 -150h300q349 0 400 150q-51 150 74 150t175 -150q-100 -350 -649 -350h-300q-550 0 -651 350q50 300 700 400v200q200 0 200 -150v-100q0 -150 -200 -150q-406 -65 -449 -200z" />
    <glyph glyph-name="Agrave" unicode="&#xc0;" horiz-adv-x="2100" 
d="M100 750q200 400 650 450h600q450 -50 650 -450v-750h-200v500h-1500v-500h-200v750zM1778 700q-178 300 -478 300h-500q-300 0 -478 -300h1456zM651 1550l204 50l245 -296q-199 21 -300 96z" />
    <glyph glyph-name="Aacute" unicode="&#xc1;" horiz-adv-x="2100" 
d="M2000 0h-200v500h-1500v-500h-200v750q200 400 650 450h600q450 -50 650 -450v-750zM1778 700q-178 300 -478 300h-500q-300 0 -478 -300h1456zM1300 1400q-101 -75 -300 -96l245 296l204 -50z" />
    <glyph glyph-name="Acircumflex" unicode="&#xc2;" horiz-adv-x="2100" 
d="M2000 0h-200v500h-1500v-500h-200v750q200 400 650 450h600q450 -50 650 -450v-750zM1778 700q-178 300 -478 300h-500q-300 0 -478 -300h1456zM599 1368l201 150q98 100 247 100h3q150 0 249 -100l201 -150q-201 -75 -451 150q-249 -225 -450 -150z" />
    <glyph glyph-name="Atilde" unicode="&#xc3;" horiz-adv-x="2100" 
d="M2000 0h-200v500h-1500v-500h-200v750q200 400 650 450h600q450 -50 650 -450v-750zM1778 700q-178 300 -478 300h-500q-300 0 -478 -300h1456zM767 1304h-31q4 256 187 258h3q73 0 199 -84q82 -55 123 -55q72 0 94 139h33q0 -168 -98 -234q-45 -28 -92 -28
q-78 0 -197 80q-90 61 -127 61q-41 0 -65 -37q-11 -14 -29 -100z" />
    <glyph glyph-name="Adieresis" unicode="&#xc4;" horiz-adv-x="2100" 
d="M2000 0h-200v500h-1500v-500h-200v750q200 400 650 450h600q450 -50 650 -450v-750zM1778 700q-178 300 -478 300h-500q-300 0 -478 -300h1456zM650 1550q200 0 200 -200h-200v200zM1250 1549q200 0 200 -200h-200v200z" />
    <glyph glyph-name="Aring" unicode="&#xc5;" horiz-adv-x="2100" 
d="M2000 0h-200v500h-1500v-500h-200v750q200 400 650 450h600q450 -50 650 -450v-750zM1778 700q-178 300 -478 300h-500q-300 0 -478 -300h1456zM1076 1300h-50q-125 25 -175 201q49 175 175 199h50q124 -24 174 -199q-50 -175 -174 -201zM1166 1500q-15 115 -115 115
t-115 -115q15 -115 115 -115t115 115z" />
    <glyph glyph-name="AE" unicode="&#xc6;" horiz-adv-x="3199" 
d="M1445 981q-68 19 -145 19h-500q-300 0 -478 -300h919q79 168 204 281zM1241 500h-941v-500h-200v750q200 400 650 450h600q167 -18 300 -86q153 70 349 86h1099v-200h-1099q-300 0 -525 -300h1125v-200h-1125q225 -300 525 -300h1099l1 -200h-1100q-543 45 -758 500z" />
    <glyph glyph-name="Ccedilla" unicode="&#xc7;" horiz-adv-x="2101" 
d="M2000 0h-1100q-600 50 -800 600q201 550 800 600h1100v-200h-1050q-449 0 -625 -400q175 -400 625 -400h1051zM1550 100l-1 -300q1 -201 -199 -201h-201q-199 0 -200 201h401v300h200z" />
    <glyph glyph-name="Egrave" unicode="&#xc8;" horiz-adv-x="2100" 
d="M375 500q225 -300 525 -300h1099l1 -200h-1100q-600 50 -800 600q200 550 800 600h1099v-200h-1099q-300 0 -525 -300h1125v-200h-1125zM1001 1550l204 50l245 -296q-199 21 -300 96z" />
    <glyph glyph-name="Eacute" unicode="&#xc9;" horiz-adv-x="2100" 
d="M375 500q225 -300 525 -300h1099l1 -200h-1100q-600 50 -800 600q200 550 800 600h1099v-200h-1099q-300 0 -525 -300h1125v-200h-1125zM1301 1400q-101 -75 -300 -96l245 296l204 -50z" />
    <glyph glyph-name="Ecircumflex" unicode="&#xca;" horiz-adv-x="2100" 
d="M375 500q225 -300 525 -300h1099l1 -200h-1100q-600 50 -800 600q200 550 800 600h1099v-200h-1099q-300 0 -525 -300h1125v-200h-1125zM750 1369l200 150q100 101 251 100q150 0 249 -100l200 -150q-200 -75 -450 150q-250 -225 -450 -150z" />
    <glyph glyph-name="Edieresis" unicode="&#xcb;" horiz-adv-x="2100" 
d="M375 500q225 -300 525 -300h1099l1 -200h-1100q-600 50 -800 600q200 550 800 600h1099v-200h-1099q-300 0 -525 -300h1125v-200h-1125zM900 1550q200 0 200 -200h-200v200zM1500 1550q200 0 200 -200h-200v200z" />
    <glyph glyph-name="Igrave" unicode="&#xcc;" horiz-adv-x="901" 
d="M351 200v800h-251q1 200 201 200h499q0 -200 -200 -200h-49v-800h250q-1 -199 -200 -200h-501q1 200 201 201zM100 1546l204 50l245 -296q-199 21 -300 96z" />
    <glyph glyph-name="Iacute" unicode="&#xcd;" horiz-adv-x="901" 
d="M351 200v800h-251q1 200 201 200h499q0 -200 -200 -200h-49v-800h250q-1 -199 -200 -200h-501q1 200 201 201zM652 1396q-101 -75 -300 -96l245 296l204 -50z" />
    <glyph glyph-name="Icircumflex" unicode="&#xce;" horiz-adv-x="1101" 
d="M452 200v800h-251q1 200 201 200h499q0 -200 -200 -200h-49v-800h250q-1 -199 -200 -200h-501q1 200 201 201zM551 1519q-250 -225 -451 -150l201 150q99 100 249 100h3q149 0 247 -100l201 -150q-201 -75 -450 150z" />
    <glyph glyph-name="Idieresis" unicode="&#xcf;" horiz-adv-x="901" 
d="M351 200v800h-251q1 200 201 200h499q0 -200 -200 -200h-49v-800h250q-1 -199 -200 -200h-501q1 200 201 201zM100 1550q200 0 200 -200h-200v200zM600 1550q200 0 200 -200h-200v200z" />
    <glyph glyph-name="Ntilde" unicode="&#xd1;" horiz-adv-x="2100" 
d="M300 0h-200v1200q200 0 301 -50l1399 -951l1 1001h199v-1200q-199 0 -300 40l-1400 960v-1000zM767 1303h-31q4 256 186 258h3q74 0 200 -84q82 -55 123 -55q72 0 94 139h33q0 -168 -98 -233q-45 -29 -93 -29q-77 0 -196 80q-90 62 -127 62q-41 0 -66 -37
q-10 -15 -28 -101z" />
    <glyph glyph-name="Ograve" unicode="&#xd2;" horiz-adv-x="2100" 
d="M950 200h200q450 0 625 400q-175 400 -625 400h-200q-450 0 -625 -400q175 -400 625 -400zM900 0q-600 50 -800 600q200 550 800 600h300q600 -50 800 -600q-200 -550 -800 -600h-300zM701 1550l204 50l245 -296q-199 21 -300 96z" />
    <glyph glyph-name="Oacute" unicode="&#xd3;" horiz-adv-x="2100" 
d="M1775 600q-175 400 -625 400h-200q-450 0 -625 -400q175 -400 625 -400h200q450 0 625 400zM900 0q-600 50 -800 600q200 550 800 600h300q600 -50 800 -600q-200 -550 -800 -600h-300zM1250 1400q-101 -75 -300 -96l245 296l204 -50z" />
    <glyph glyph-name="Ocircumflex" unicode="&#xd4;" horiz-adv-x="2100" 
d="M1775 600q-175 400 -625 400h-200q-450 0 -625 -400q175 -400 625 -400h200q450 0 625 400zM900 0q-600 50 -800 600q200 550 800 600h300q600 -50 800 -600q-200 -550 -800 -600h-300zM1051 1518q-250 -225 -451 -150l201 150q99 100 249 100h3q149 0 247 -100l201 -150
q-201 -75 -450 150z" />
    <glyph glyph-name="Otilde" unicode="&#xd5;" horiz-adv-x="2100" 
d="M950 200h200q450 0 625 400q-175 400 -625 400h-200q-450 0 -625 -400q175 -400 625 -400zM900 0q-600 50 -800 600q200 550 800 600h300q600 -50 800 -600q-200 -550 -800 -600h-300zM767 1303h-31q4 256 186 258h3q74 0 200 -84q82 -55 123 -55q72 0 94 139h33
q0 -168 -98 -233q-45 -29 -93 -29q-77 0 -196 80q-90 62 -127 62q-41 0 -66 -37q-10 -15 -28 -101z" />
    <glyph glyph-name="Odieresis" unicode="&#xd6;" horiz-adv-x="2100" 
d="M950 200h200q450 0 625 400q-175 400 -625 400h-200q-450 0 -625 -400q175 -400 625 -400zM900 0q-600 50 -800 600q200 550 800 600h300q600 -50 800 -600q-200 -550 -800 -600h-300zM650 1550q200 0 200 -200h-200v200zM1250 1549q200 0 200 -200h-200v200z" />
    <glyph glyph-name="Oslash" unicode="&#xd8;" horiz-adv-x="2100" 
d="M1602 1088q275 -149 398 -488q-200 -550 -800 -600h-300q-141 12 -260 51l-140 -150q-51 -100 -200 -100v100l197 212q-274 149 -397 487q200 550 800 600h300q140 -12 258 -51l141 152q51 99 201 99v-99zM636 263l671 723q-74 14 -157 14h-200q-450 0 -625 -400
q106 -241 311 -337zM1463 938l-672 -724q75 -14 159 -14h200q450 0 625 400q-106 242 -312 338z" />
    <glyph glyph-name="Ugrave" unicode="&#xd9;" horiz-adv-x="2100" 
d="M1300 200q300 0 450 250l50 90v660h200v-750q-200 -400 -650 -450h-600q-450 50 -650 450v750h200v-660l50 -90q150 -250 450 -250h500zM701 1550l204 50l245 -296q-199 21 -300 96z" />
    <glyph glyph-name="Uacute" unicode="&#xda;" horiz-adv-x="2100" 
d="M1300 200q300 0 450 250l50 90v660h200v-750q-200 -400 -650 -450h-600q-450 50 -650 450v750h200v-660l50 -90q150 -250 450 -250h500zM1250 1400q-101 -75 -300 -96l245 296l204 -50z" />
    <glyph glyph-name="Ucircumflex" unicode="&#xdb;" horiz-adv-x="2100" 
d="M1300 200q300 0 450 250l50 90v660h200v-750q-200 -400 -650 -450h-600q-450 50 -650 450v750h200v-660l50 -90q150 -250 450 -250h500zM600 1319l201 150q99 101 250 100q150 0 249 -100l201 -150q-201 -75 -451 150q-249 -225 -450 -150z" />
    <glyph glyph-name="Udieresis" unicode="&#xdc;" horiz-adv-x="2100" 
d="M1300 200q300 0 450 250l50 90v660h200v-750q-200 -400 -650 -450h-600q-450 50 -650 450v750h200v-660l50 -90q150 -250 450 -250h500zM650 1500q200 0 200 -200h-200v200zM1250 1500q200 0 200 -200h-200v200z" />
    <glyph glyph-name="germandbls" unicode="&#xdf;" horiz-adv-x="1132" 
d="M1032 481q0 -218 -135 -361.5t-351 -143.5q-25 0 -62.5 3t-59.5 7v166h10q28 -8 59 -12.5t61 -4.5q77 0 131.5 27.5t87.5 74.5q35 51 49.5 111t14.5 141q0 169 -103 248.5t-304 79.5v157q152 0 233.5 57.5t81.5 190.5q0 33 -10 68.5t-34 63.5q-24 29 -62 46.5t-97 17.5
q-53 0 -96 -14.5t-81 -54.5q-36 -37 -56.5 -103t-20.5 -160v-1086h-188v1080q0 130 34 218t95 150q60 60 142.5 89t174.5 29q168 0 279.5 -85t111.5 -240q0 -112 -71 -201t-184 -121v-9q164 -37 257 -147t93 -282z" />
    <glyph glyph-name="agrave" unicode="&#xe0;" 
d="M1375 550q-143 150 -375 150h-200q-232 0 -375 -150h950zM300 350v-350l-199 1l-1 -1v450q200 400 650 450h300q450 -50 650 -450v-450h-200v351zM549 1250l204 50l245 -296q-199 21 -300 96z" />
    <glyph glyph-name="aacute" unicode="&#xe1;" 
d="M1375 550q-143 150 -375 150h-200q-232 0 -375 -150h950zM300 351v-351h-200v450q200 400 650 450h300q450 -50 650 -450v-450l-1 1l-199 -1v350zM1102 1100q-101 -75 -300 -96l245 296l204 -50z" />
    <glyph glyph-name="acircumflex" unicode="&#xe2;" 
d="M1375 550q-143 150 -375 150h-200q-232 0 -375 -150h950zM300 351v-351h-200v450q200 400 650 450h300q450 -50 650 -450v-450l-1 1l-199 -1v350zM451 1068l201 150q98 101 247 101h3q150 0 249 -101l201 -150q-201 -74 -451 151q-249 -225 -450 -151z" />
    <glyph glyph-name="atilde" unicode="&#xe3;" 
d="M1375 550q-143 150 -375 150h-200q-232 0 -375 -150h950zM300 351v-351h-200v450q200 400 650 450h300q450 -50 650 -450v-450l-1 1l-199 -1v350zM617 1004h-31q4 256 187 258h3q73 0 199 -84q82 -55 123 -55q72 0 94 139h33q0 -168 -98 -234q-45 -28 -92 -28
q-78 0 -197 80q-90 61 -127 61q-41 0 -65 -37q-11 -14 -29 -100z" />
    <glyph glyph-name="adieresis" unicode="&#xe4;" 
d="M1375 550q-143 150 -375 150h-200q-232 0 -375 -150h950zM300 351v-351h-200v450q200 400 650 450h300q450 -50 650 -450v-450l-1 1l-199 -1v350zM501 1250q200 0 200 -200h-200v200zM1101 1250q200 0 200 -200h-200v200z" />
    <glyph glyph-name="aring" unicode="&#xe5;" 
d="M1375 550q-143 150 -375 150h-200q-232 0 -375 -150h950zM300 351v-351h-200v450q200 400 650 450h300q450 -50 650 -450v-450l-1 1l-199 -1v350zM926 999h-50q-125 25 -175 201q49 175 175 199h50q124 -24 174 -199q-50 -175 -174 -201zM1016 1199q-15 115 -115 115
t-115 -115q15 -115 115 -115t115 115z" />
    <glyph glyph-name="ae" unicode="&#xe6;" horiz-adv-x="2750" 
d="M1107 550q43 64 93 116q-90 34 -200 34h-200q-232 0 -375 -150h682zM1107 350l-807 1v-351h-200v450q200 400 650 450h300q183 -21 325 -99q142 79 325 99h950v-200h-900q-232 0 -375 -150h875v-200h-875q143 -150 375 -150h900v-200h-950q-390 43 -593 350z" />
    <glyph glyph-name="ccedilla" unicode="&#xe7;" 
d="M1700 0h-950q-450 50 -650 450q200 400 650 450h950v-200h-900q-300 0 -450 -250q150 -250 450 -250h900v-200zM1350 150v-300q1 -200 -200 -201l-100 1q-199 0 -199 201l299 -1l1 300h199z" />
    <glyph glyph-name="egrave" unicode="&#xe8;" 
d="M425 350q143 -150 375 -150h900v-200h-950q-450 50 -650 450q200 400 650 450h950v-200h-900q-232 0 -375 -150h875v-200h-875zM800 1250l205 50l245 -296q-200 21 -301 96z" />
    <glyph glyph-name="eacute" unicode="&#xe9;" 
d="M425 350q143 -150 375 -150h900v-200h-950q-450 50 -650 450q200 400 650 450h950v-200h-900q-232 0 -375 -150h875v-200h-875zM1101 1100q-101 -75 -301 -96l245 296l205 -50z" />
    <glyph glyph-name="ecircumflex" unicode="&#xea;" 
d="M425 350q143 -150 375 -150h900v-200h-950q-450 50 -650 450q200 400 650 450h950v-200h-900q-232 0 -375 -150h875v-200h-875zM600 1069l201 150q99 100 248 100h3q150 0 248 -100l201 -150q-201 -75 -450 150q-250 -225 -451 -150z" />
    <glyph glyph-name="edieresis" unicode="&#xeb;" 
d="M425 350q143 -150 375 -150h900v-200h-950q-450 50 -650 450q200 400 650 450h950v-200h-900q-232 0 -375 -150h875v-200h-875zM1300 1050v200q150 -51 200 -200h-200zM700 1050v200q150 -51 200 -200h-200z" />
    <glyph glyph-name="igrave" unicode="&#xec;" horiz-adv-x="649" 
d="M549 700v-700h-200v900q150 -51 200 -200zM100 1250l204 50l245 -296q-199 21 -300 96z" />
    <glyph glyph-name="iacute" unicode="&#xed;" horiz-adv-x="649" 
d="M300 700v-700h-200v900q150 -51 200 -200zM400 1100q-101 -75 -300 -96l245 296l204 -50z" />
    <glyph glyph-name="icircumflex" unicode="&#xee;" horiz-adv-x="1101" 
d="M651 700v-700h-200v900q150 -51 200 -200zM100 1069l201 150q99 100 248 100h3q150 0 248 -100l201 -150q-201 -75 -450 150q-250 -225 -451 -150z" />
    <glyph glyph-name="idieresis" unicode="&#xef;" horiz-adv-x="801" 
d="M501 700v-700h-200v900q150 -51 200 -200zM501 1050v200q150 -51 200 -200h-200zM100 1050v200q150 -51 200 -200h-200z" />
    <glyph glyph-name="ntilde" unicode="&#xf1;" 
d="M300 0h-200v900q200 0 301 -50l1099 -650l1 700h199v-900q-199 0 -300 41l-1100 659v-700zM617 1004h-31q4 256 186 258h3q74 0 200 -84q82 -55 123 -55q72 0 94 139h33q0 -168 -98 -233q-45 -29 -92 -29q-78 0 -197 80q-90 61 -127 61q-41 0 -66 -37q-10 -14 -28 -100z
" />
    <glyph glyph-name="ograve" unicode="&#xf2;" 
d="M800 200h200q300 0 450 250q-150 250 -450 250h-200q-300 0 -450 -250q150 -250 450 -250zM1050 0h-300q-450 50 -650 450q200 400 650 450h300q450 -50 650 -450q-200 -400 -650 -450zM551 1250l204 50l245 -296q-199 21 -300 96z" />
    <glyph glyph-name="oacute" unicode="&#xf3;" 
d="M1450 450q-150 250 -450 250h-200q-300 0 -450 -250q150 -250 450 -250h200q300 0 450 250zM100 450q200 400 650 450h300q450 -50 650 -450q-200 -400 -650 -450h-300q-450 50 -650 450zM1100 1100q-101 -75 -300 -96l245 296l204 -50z" />
    <glyph glyph-name="ocircumflex" unicode="&#xf4;" 
d="M800 200h200q300 0 450 250q-150 250 -450 250h-200q-300 0 -450 -250q150 -250 450 -250zM1050 0h-300q-450 50 -650 450q200 400 650 450h300q450 -50 650 -450q-200 -400 -650 -450zM451 1068l201 150q98 101 247 101h3q150 0 249 -101l201 -150q-201 -74 -451 151
q-249 -225 -450 -151z" />
    <glyph glyph-name="otilde" unicode="&#xf5;" 
d="M800 200h200q300 0 450 250q-150 250 -450 250h-200q-300 0 -450 -250q150 -250 450 -250zM1050 0h-300q-450 50 -650 450q200 400 650 450h300q450 -50 650 -450q-200 -400 -650 -450zM617 1004h-31q4 256 186 258h3q74 0 200 -84q82 -55 123 -55q72 0 94 139h33
q0 -168 -98 -233q-45 -29 -92 -29q-78 0 -197 80q-90 61 -127 61q-41 0 -66 -37q-10 -14 -28 -100z" />
    <glyph glyph-name="odieresis" unicode="&#xf6;" 
d="M800 200h200q300 0 450 250q-150 250 -450 250h-200q-300 0 -450 -250q150 -250 450 -250zM1050 0h-300q-450 50 -650 450q200 400 650 450h300q450 -50 650 -450q-200 -400 -650 -450zM499 1250q200 0 200 -200h-200v200zM1099 1250q200 0 200 -200h-200v200z" />
    <glyph glyph-name="divide" unicode="&#xf7;" horiz-adv-x="999" 
d="M100 350q0 200 200 200h599v-2q0 -198 -199 -198h-600zM400 200h200q0 -200 -200 -200v200zM400 900q200 0 200 -200h-200v200z" />
    <glyph glyph-name="oslash" unicode="&#xf8;" 
d="M1336 821q235 -112 364 -371q-200 -400 -650 -450h-300q-72 8 -137 25l-113 -124q-51 -100 -200 -100v100l162 179q-233 112 -362 370q200 400 650 450h300q71 -8 135 -24l114 125q51 99 201 99v-99zM602 233l423 467h-225q-300 0 -450 -250q95 -159 252 -217zM1197 668
l-425 -467q14 -1 28 -1h200q300 0 450 250q-96 160 -253 218z" />
    <glyph glyph-name="ugrave" unicode="&#xf9;" 
d="M1000 200q300 0 450 250l50 90v360h200v-450q-200 -400 -650 -450h-300q-450 50 -650 450v450h200v-360l50 -90q150 -250 450 -250h200zM551 1246l204 50l245 -296q-199 21 -300 96z" />
    <glyph glyph-name="uacute" unicode="&#xfa;" 
d="M1000 200q300 0 450 250l50 90v360h200v-450q-200 -400 -650 -450h-300q-450 50 -650 450v450h200v-360l50 -90q150 -250 450 -250h200zM1100 1096q-101 -75 -300 -96l245 296l204 -50z" />
    <glyph glyph-name="ucircumflex" unicode="&#xfb;" 
d="M1000 200q300 0 450 250l50 90v360h200v-450q-200 -400 -650 -450h-300q-450 50 -650 450v450h200v-360l50 -90q150 -250 450 -250h200zM449 1018l201 150q99 102 250 101q150 0 249 -101l201 -150q-201 -74 -451 151q-249 -225 -450 -151z" />
    <glyph glyph-name="udieresis" unicode="&#xfc;" 
d="M1000 200q300 0 450 250l50 90v360h200v-450q-200 -400 -650 -450h-300q-450 50 -650 450v450h200v-360l50 -90q150 -250 450 -250h200zM500 1200q200 0 200 -200h-200v200zM1100 1200q200 0 200 -200h-200v200z" />
    <glyph glyph-name="ydieresis" unicode="&#xff;" 
d="M599 225h201v-350q0 -200 200 -300l-1 650h200l500 375h1v300h-200v-201l-351 -274h-500l-349 275v200h-200v-300h1zM500 1200q200 0 200 -200h-200v200zM1100 1200q200 0 200 -200h-200v200z" />
    <glyph glyph-name="itilde" unicode="&#x129;" horiz-adv-x="839" 
d="M340 599h200v-599h-200v599zM341 700v200q150 -51 200 -200h-200zM131 1003h-31q4 256 186 259q74 2 203 -84q82 -56 123 -56q72 0 94 140h33q0 -168 -98 -234q-45 -29 -92 -29q-78 0 -197 80q-90 62 -127 62q-41 0 -66 -37q-10 -15 -28 -101z" />
    <glyph glyph-name="omacron" unicode="&#x14d;" 
d="M800 200h200q300 0 450 250q-150 250 -450 250h-200q-300 0 -450 -250q150 -250 450 -250zM1050 0h-300q-450 50 -650 450q200 400 650 450h300q450 -50 650 -450q-200 -400 -650 -450zM200 1050q0 200 299 200h1102q0 -200 -300 -200h-1101z" />
    <glyph glyph-name="Obreve" unicode="&#x14e;" horiz-adv-x="2100" 
d="M950 200h200q450 0 625 400q-175 400 -625 400h-200q-450 0 -625 -400q175 -400 625 -400zM900 0q-600 50 -800 600q200 550 800 600h300q600 -50 800 -600q-200 -550 -800 -600h-300zM600 1550v100h150q0 -150 299.5 -150t300.5 150h150v-100q-50 -200 -449.5 -200
t-450.5 200z" />
    <glyph glyph-name="OE" unicode="&#x152;" horiz-adv-x="3050" 
d="M1525 75q-145 -60 -325 -75h-300q-600 50 -800 600q200 550 800 600h300q181 -15 325 -75q145 60 325 75h1099v-200h-1099q-300 0 -525 -300h1125v-200h-1125q225 -300 525 -300h1099l1 -200h-1100q-181 15 -325 75zM1303 987q-72 13 -153 13h-200q-450 0 -625 -400
q175 -400 625 -400h200q81 0 153 13q-165 145 -253 387q88 242 253 387z" />
    <glyph glyph-name="oe" unicode="&#x153;" horiz-adv-x="2600" 
d="M1300 63q-113 -48 -250 -63h-300q-450 50 -650 450q200 400 650 450h300q136 -15 250 -63q113 48 250 63h950v-200h-900q-232 0 -375 -150h875v-200h-875q143 -150 375 -150h900v-200h-950q-137 15 -250 63zM1079 695q-38 5 -79 5h-200q-300 0 -450 -250
q150 -250 450 -250h200q41 0 79 5q-106 99 -179 245q73 146 179 245z" />
    <glyph glyph-name="Ydieresis" unicode="&#x178;" horiz-adv-x="2099" 
d="M101 900h-1v300h200v-200l350 -251l800 1l349 249v201h200v-300h-1l-498 -350h-350v-750q-201 0 -200 300l1 450l-351 -1zM650 1501q200 0 200 -200h-200v200zM1250 1500q200 0 200 -200h-200v200z" />
    <glyph glyph-name="zacute" unicode="&#x17a;" horiz-adv-x="1801" 
d="M100 700v200h1301q200 0 299 -300l-1299 -400h1299l1 -200h-1301q-199 0 -299 300l1299 400h-1300zM1101 1100q-101 -75 -300 -96l245 296l204 -50z" />
    <glyph glyph-name="florin" unicode="&#x192;" horiz-adv-x="1200" 
d="M100 -50h400v700h-100q-200 0 -200 200h300v500q0 200 200 200h200q200 0 200 -200h-400v-500h100q200 0 200 -200h-300v-699q0 -200 -200 -200l-200 -1q-200 0 -200 200z" />
    <glyph glyph-name="Scommaaccent" unicode="&#x218;" horiz-adv-x="2100" 
d="M2000 701q-200 -651 -850 -701h-750q-200 0 -300 200h1000q400 0 600 300h-1600q200 650 850 700h750q200 0 300 -200h-1000q-400 0 -600 -300zM1151 -303q-101 -75 -300 -96l245 296l204 -50z" />
    <glyph glyph-name="circumflex" unicode="&#x2c6;" horiz-adv-x="1101" 
d="M100 1319l201 150q98 100 247 100h3q150 0 249 -100l201 -150q-50 -19 -104 -19q-159 0 -347 169q-187 -169 -346 -169q-54 0 -104 19z" />
    <glyph glyph-name="tilde" unicode="&#x2dc;" horiz-adv-x="839" 
d="M131 1304h-31q4 256 187 258h3q73 0 199 -84q82 -55 123 -55q72 0 94 139h33q0 -168 -98 -234q-45 -28 -92 -28q-78 0 -197 80q-90 61 -127 61q-41 0 -65 -37q-11 -14 -29 -100z" />
    <glyph glyph-name="uni1E59" unicode="&#x1e59;" 
d="M300 700h750q350 0 400 -75q-50 -75 -400 -75h-750v150zM1000 0h700v200h-650l-225 150h225q550 0 650 275q-100 275 -650 275h-950v-900h200v350h200zM700 1250q200 0 200 -200h-200v200z" />
    <glyph glyph-name="uni1E5A" unicode="&#x1e5a;" horiz-adv-x="2100" 
d="M300 1000h1000q400 0 450 -150q-50 -150 -450 -150h-1000v300zM1300 0h700v200h-625l-301 300h226q600 0 699 350q-99 350 -699 350h-1200v-1200h200v500h500zM900 -99q200 0 200 -200h-200v200z" />
    <glyph glyph-name="uni1E6B" unicode="&#x1e6b;" 
d="M100 700v200h1600v-200h-700v-700h-200v700h-700zM800 1249q200 0 200 -200h-200v200z" />
    <glyph glyph-name="uni1E6C" unicode="&#x1e6c;" horiz-adv-x="2100" 
d="M101 1000l-1 200h1900v-200h-849v-1000h-201v1000h-849zM950 -100q200 0 200 -200h-200v200z" />
    <glyph glyph-name="uni1E6D" unicode="&#x1e6d;" 
d="M100 700v200h1600v-200h-700v-700h-200v700h-700zM800 -100q200 0 200 -200h-200v200z" />
    <glyph glyph-name="uni1E6E" unicode="&#x1e6e;" horiz-adv-x="2100" 
d="M101 1000l-1 200h1900v-200h-849v-1000h-201v1000h-849zM300 -351q0 200 299 200l1201 1q0 -200 -300 -200z" />
    <glyph glyph-name="uni1E6F" unicode="&#x1e6f;" 
d="M100 700v200h1600v-200h-700v-700h-200v700h-700zM201 -351q0 200 299 200h1101q0 -200 -300 -200h-1100z" />
    <glyph glyph-name="uni1E70" unicode="&#x1e70;" horiz-adv-x="2100" 
d="M101 1000l-1 200h1900v-200h-849v-1000h-201v1000h-849zM600 -351l200 150q100 101 251 100q150 0 249 -100l200 -150q-200 -74 -450 150q-250 -224 -450 -150z" />
    <glyph glyph-name="endash" unicode="&#x2013;" horiz-adv-x="999" 
d="M100 350q0 200 200 200h599v-2q0 -198 -199 -198h-600z" />
    <glyph glyph-name="emdash" unicode="&#x2014;" horiz-adv-x="1700" 
d="M100 350q0 200 299 200h1201q0 -200 -300 -200h-1200z" />
    <glyph glyph-name="quoteleft" unicode="&#x2018;" horiz-adv-x="400" 
d="M100 1600h200v-400q-200 0 -200 300v100z" />
    <glyph glyph-name="quoteright" unicode="&#x2019;" horiz-adv-x="400" 
d="M300 1500q0 -300 -200 -300v400h200v-100z" />
    <glyph glyph-name="quotesinglbase" unicode="&#x201a;" horiz-adv-x="400" 
d="M300 100q0 -300 -200 -300v400h200v-100z" />
    <glyph glyph-name="quotedblleft" unicode="&#x201c;" horiz-adv-x="700" 
d="M100 1600h200v-400q-200 0 -200 300v100zM400 1600l200 -1v-399q-200 0 -200 300v100z" />
    <glyph glyph-name="quotedblright" unicode="&#x201d;" horiz-adv-x="700" 
d="M600 1500q0 -300 -200 -300v400h200v-100zM300 1500q0 -300 -200 -300v399l200 1v-100z" />
    <glyph glyph-name="quotedblbase" unicode="&#x201e;" horiz-adv-x="700" 
d="M600 100q0 -299 -200 -299v399h200v-100zM300 100q0 -299 -200 -299v398l200 1v-100z" />
    <glyph glyph-name="dagger" unicode="&#x2020;" horiz-adv-x="999" 
d="M600 1000v-800q0 -200 -200 -200v1000h-300q0 200 200 200h100v100q0 200 200 200v-300h299v-2q0 -198 -199 -198h-100z" />
    <glyph glyph-name="daggerdbl" unicode="&#x2021;" horiz-adv-x="999" 
d="M400 501v499h-300q0 200 200 200h100v100q0 200 200 200v-300h299v-2q0 -198 -199 -198h-100v-499h299v-2q0 -198 -199 -198h-100v-101q0 -200 -200 -200v301h-299q0 200 199 200h100z" />
    <glyph glyph-name="bullet" unicode="&#x2022;" horiz-adv-x="1099" 
d="M600 150h-101q-199 50 -399 300q200 250 399 300h101q199 -50 399 -300q-200 -250 -399 -300z" />
    <glyph glyph-name="ellipsis" unicode="&#x2026;" horiz-adv-x="1200" 
d="M100 200q200 0 200 -200h-200v200zM500 200q200 0 200 -200h-200v200zM900 200q200 0 200 -200h-200v200z" />
    <glyph glyph-name="perthousand" unicode="&#x2030;" horiz-adv-x="2999" 
d="M750 950q-51 100 -200.5 100t-199.5 -100q50 -99 199.5 -99t200.5 99zM600 650h-101q-199 50 -399 300q200 250 399 300h101q199 -50 399 -300q-200 -250 -399 -300zM2649 299q-50 101 -200 101t-200 -100q50 -100 200 -100t200 99zM2499 0h-100q-199 50 -399 300
q199 250 399 300h101q199 -51 399 -301q-200 -249 -400 -299zM1601 1050l-1102 -1009q-101 -41 -300 -41v100l200 100l1101 1000q101 50 301 50v-100zM1650 299q-50 101 -200 101t-200 -100q50 -100 200 -100t200 99zM1500 0h-100q-199 50 -399 300q199 250 399 300h101
q199 -51 399 -301q-200 -249 -400 -299z" />
    <glyph glyph-name="guilsinglleft" unicode="&#x2039;" horiz-adv-x="900" 
d="M800 50l-400 150q-300 99 -300 250q1 150 300 250l400 149q0 -150 -150 -249l-350 -151l350 -149q150 -100 150 -248v-2z" />
    <glyph glyph-name="guilsinglright" unicode="&#x203a;" horiz-adv-x="900" 
d="M100 50v2q0 148 150 248l350 149l-350 151q-150 99 -150 249l399 -149q300 -100 301 -250q0 -151 -301 -250z" />
    <glyph glyph-name="Euro" unicode="&#x20ac;" horiz-adv-x="2100" 
d="M536 875q193 289 514 325h950v-200h-900q-168 0 -296 -125h596q400 0 400 -200h-1139q-19 -36 -36 -75q17 -39 36 -75h739q400 0 400 -200h-996q128 -125 296 -125h900v-200h-950q-321 36 -514 325h-136q-299 0 -299 200h328q-15 36 -29 75q14 39 29 75h-30
q-299 0 -299 200h436z" />
    <glyph glyph-name="trademark" unicode="&#x2122;" horiz-adv-x="2600" 
d="M100 1350v150h1200v-150h-525v-650h-150v650h-525zM1825 1350q-225 0 -375 -325v-325h-149v350q149 400 487 450h225q337 -50 487 -450v-350h-150v325q-150 325 -375 325v-450h-150v450z" />
  </font>
</defs>
</svg>
